#  ==========================================================================
#  
#  Wavefront OBJ format exported by Red-i Productions' "Riptide Pro"
#     (a commercial plugin for Cinema 4D PC & Mac, R9.6 or later)
#  
#  Red-i Productions
#  http://skinprops.com
#  
#  ==========================================================================
mtllib NOVELO_UMBRELLA.mtl
o Null.1
v 0 30.9495 2.31089
v 0 65.9495 -58.3109
v 0.98 30.9495 2.31089
v 0.71246 30.2145 1.81426
v -34.9201 65.2145 -47.2298
v 0.98 65.9495 -58.3109
v 1.21132 31.6845 2.50087
v -0.49 30.2145 1.88654
v -34.4213 66.6845 -46.5432
v -0.49 65.2145 -58.7352
v -2.1 -148.133 3.63731
v -0.49 31.6845 2.73524
v -2.1 94.4391 3.63731
v -0.49 66.6845 -57.8865
v -1.35831 30.9495 1.86955
v 34.2743 65.9495 -47.1745
v 4.2 94.4391 -0
v -0.56547 30.9495 2.44558
v 35.0671 65.9495 -46.5985
v -4.2 -148.133 -5.14352e-16
v 2.1 94.4391 -3.63731
v -1.5053 30.2145 1.23823
v 34.1273 65.2145 -47.8058
v -2.1 -148.133 -3.63731
v -2.1 94.4391 -3.63731
v -2.00415 31.6845 1.92484
v 33.6284 66.6845 -47.1192
v 2.1 94.4391 3.63731
v -2.19779 30.9495 0.714104
v 55.457 65.9495 -18.0191
v 2.1 -148.133 -3.63731
v -1.89495 30.9495 1.64614
v -4.2 94.4391 -5.14352e-16
v 55.7598 65.9495 -17.087
v 4.2 -148.133 -0
v -1.94562 30.2145 0.116954
v 2.1 -148.133 3.63731
v 55.7091 65.2145 -18.6162
v -2.75279 31.6845 0.379218
v 0 92.3014 -0
v 54.9019 66.6845 -18.3539
v 140 22.1137 -0
v -2.19779 30.9495 -0.714104
v 55.457 65.9495 18.0191
v -2.50062 30.9495 0.217931
v 90.3824 58.296 -0
v 55.1541 65.9495 18.9511
v 115.519 22.1137 -37.5344
v 85.9587 58.296 -27.9297
v -1.64278 30.2145 -1.04899
v 56.012 65.2145 17.6842
v 113.262 22.1137 -82.2899
v -2.44995 31.6845 -1.31125
v 73.1209 58.296 -53.1254
v 55.2048 66.6845 17.4219
v 71.3947 22.1137 -98.2664
v -1.35831 30.9495 -1.86955
v 34.2743 65.9495 47.1745
v -2.15114 30.9495 -1.29352
v 53.1254 58.296 -73.1209
v 33.4814 65.9495 47.7505
v 43.2624 22.1137 -133.148
v 27.9297 58.296 -85.9587
v -0.71246 30.2145 -1.81426
v 34.9201 65.2145 47.2298
v 4.8034e-15 22.1137 -121.464
v -1.21132 31.6845 -2.50087
v 5.53432e-15 58.296 -90.3824
v 34.4213 66.6845 46.5432
v -43.2624 22.1137 -133.148
v -2.83002e-16 30.9495 -2.31089
v 7.14102e-15 65.9495 58.3109
v -0.98 30.9495 -2.31089
v -27.9297 58.296 -85.9587
v -0.98 65.9495 58.3109
v -71.3947 22.1137 -98.2664
v 0.49 30.2145 -1.88654
v -53.1254 58.296 -73.1209
v -113.262 22.1137 -82.2899
v 0.49 65.2145 58.7352
v -73.1209 58.296 -53.1254
v 0.49 31.6845 -2.73524
v -115.519 22.1137 -37.5344
v 0.49 66.6845 57.8865
v 1.35831 30.9495 -1.86955
v -34.2743 65.9495 47.1745
v -85.9587 58.296 -27.9297
v 0.56547 30.9495 -2.44558
v -35.0671 65.9495 46.5985
v -140 22.1137 -1.71451e-14
v 1.5053 30.2145 -1.23823
v -90.3824 58.296 -1.10686e-14
v -34.1273 65.2145 47.8058
v -115.519 22.1137 37.5344
v 2.00415 31.6845 -1.92484
v -85.9587 58.296 27.9297
v -113.262 22.1137 82.2899
v -33.6284 66.6845 47.1192
v 2.19779 30.9495 -0.714104
v -55.457 65.9495 18.0191
v -73.1209 58.296 53.1254
v 1.89495 30.9495 -1.64614
v -55.7598 65.9495 17.087
v -71.3947 22.1137 98.2664
v -53.1254 58.296 73.1209
v 1.94562 30.2145 -0.116954
v -55.7091 65.2145 18.6162
v -43.2624 22.1137 133.148
v 2.75279 31.6845 -0.379218
v -27.9297 58.296 85.9587
v -54.9019 66.6845 18.3539
v -2.49467e-14 22.1137 121.464
v 2.19779 30.9495 0.714104
v -55.457 65.9495 -18.0191
v 2.50062 30.9495 -0.217931
v -1.6603e-14 58.296 90.3824
v -55.1541 65.9495 -18.9511
v 43.2624 22.1137 133.148
v 27.9297 58.296 85.9587
v 1.64278 30.2145 1.04899
v 71.3947 22.1137 98.2664
v -56.012 65.2145 -17.6842
v 2.44995 31.6845 1.31125
v 53.1254 58.296 73.1209
v 113.262 22.1137 82.2899
v -55.2048 66.6845 -17.4219
v 1.35831 30.9495 1.86955
v -34.2743 65.9495 -47.1745
v 2.15114 30.9495 1.29352
v 73.1209 58.296 53.1254
v -33.4814 65.9495 -47.7505
v 115.519 22.1137 37.5344
v 85.9587 58.296 27.9297
# 133 vertices

vt 0.50000 0.50000
vt 0.00000 0.50000
vt 0.75000 0.93301
vt 0.00000 0.00000
vt 0.00000 1.00000
vt 0.33333 1.00000
vt 0.33333 0.00000
vt 1.00000 0.50000
vt 0.25000 0.93301
vt 0.75000 0.06699
vt 0.66667 1.00000
vt 0.66667 0.00000
vt 0.25000 0.06699
vt 1.00000 1.00000
vt 1.00000 0.00000
vt 0.83333 0.19324
vt 0.83333 1.00000
vt 1.00000 0.19324
vt 0.00000 0.19324
vt 0.16667 1.00000
vt 0.16667 0.19324
vt 0.75000 1.00000
vt 0.25000 0.00000
vt 0.75000 0.00000
vt 0.33333 0.19324
vt 0.50000 0.19324
vt 0.50000 1.00000
vt 0.66667 0.19324
vt 0.25000 1.00000
vt 0.75000 0.50000
vt 0.73776 0.57725
vt 0.97553 0.65451
vt 0.70225 0.64695
vt 0.90451 0.79389
vt 0.64695 0.70225
vt 0.79389 0.90451
vt 0.57725 0.73776
vt 0.65451 0.97553
vt 0.50000 0.75000
vt 0.42275 0.73776
vt 0.34549 0.97553
vt 0.35305 0.70225
vt 0.20611 0.90451
vt 0.29775 0.64695
vt 0.09549 0.79389
vt 0.26224 0.57725
vt 0.02447 0.65451
vt 0.25000 0.50000
vt 0.26224 0.42275
vt 0.02447 0.34549
vt 0.29775 0.35305
vt 0.09549 0.20611
vt 0.35305 0.29775
vt 0.20611 0.09549
vt 0.42275 0.26224
vt 0.34549 0.02447
vt 0.50000 0.25000
vt 0.50000 0.00000
vt 0.57725 0.26224
vt 0.65451 0.02447
vt 0.64695 0.29775
vt 0.79389 0.09549
vt 0.70225 0.35305
vt 0.90451 0.20611
vt 0.73776 0.42275
vt 0.97553 0.34549
# 66 texture coordinates

vn -6.67417e-17 -0.5 0.866025
vn 0.447214 -0.447214 0.774597
vn -0.223607 -0.782624 0.580947
vn 0.447214 0.447214 -0.774597
vn -0.223607 0.111803 -0.968246
vn 0 0.5 -0.866025
vn -0.223607 -0.111803 0.968246
vn -0.223607 0.782624 -0.580947
vn -0.509037 -0.5 0.700629
vn -0.0934931 -0.447214 0.889527
vn -0.522374 -0.782624 0.338564
vn 0.8171 0.447214 -0.363796
vn 0.388219 0.111803 -0.91476
vn 0.509037 0.5 -0.700629
vn -0.750022 -0.111803 0.651895
vn 0.160571 0.782624 -0.601429
vn -0.823639 -0.5 0.267617
vn -0.598489 -0.447214 0.664689
vn -0.621612 -0.782624 -0.0331401
vn 0.874882 0.447214 0.185962
vn 0.851758 0.111803 -0.511867
vn 0.823639 0.5 -0.267617
vn -0.989955 -0.111803 0.0865417
vn 0.483416 0.782624 -0.392185
vn -0.823639 -0.5 -0.267617
vn -0.874882 -0.447214 0.185962
vn -0.483416 -0.782624 -0.392185
vn 0.598489 0.447214 0.664689
vn 0.989955 0.111803 0.0865417
vn 0.823639 0.5 0.267617
vn -0.851758 -0.111803 -0.511867
vn 0.621612 0.782624 -0.0331401
vn -0.509037 -0.5 -0.700629
vn -0.8171 -0.447214 -0.363796
vn -0.160571 -0.782624 -0.601429
vn 0.0934931 0.447214 0.889527
vn 0.750022 0.111803 0.651895
vn 0.509037 0.5 0.700629
vn -0.388219 -0.111803 -0.91476
vn 0.522374 0.782624 0.338564
vn 6.67417e-17 -0.5 -0.866025
vn -0.447214 -0.447214 -0.774597
vn 0.223607 -0.782624 -0.580947
vn -0.447214 0.447214 0.774597
vn 0.223607 0.111803 0.968246
vn 4.8499e-15 0.5 0.866025
vn 0.223607 -0.111803 -0.968246
vn 0.223607 0.782624 0.580947
vn 0.509037 -0.5 -0.700629
vn 0.0934931 -0.447214 -0.889527
vn 0.522374 -0.782624 -0.338564
vn -0.8171 0.447214 0.363796
vn -0.388219 0.111803 0.91476
vn -0.509037 0.5 0.700629
vn 0.750022 -0.111803 -0.651895
vn -0.160571 0.782624 0.601429
vn 0.823639 -0.5 -0.267617
vn 0.598489 -0.447214 -0.664689
vn 0.621612 -0.782624 0.0331401
vn -0.874882 0.447214 -0.185962
vn -0.851758 0.111803 0.511867
vn -0.823639 0.5 0.267617
vn 0.989955 -0.111803 -0.0865417
vn -0.483416 0.782624 0.392185
vn 0.823639 -0.5 0.267617
vn 0.874882 -0.447214 -0.185962
vn 0.483416 -0.782624 0.392185
vn -0.598489 0.447214 -0.664689
vn -0.989955 0.111803 -0.0865417
vn -0.823639 0.5 -0.267617
vn 0.851758 -0.111803 0.511867
vn -0.621612 0.782624 0.0331401
vn 0.509037 -0.5 0.700629
vn 0.8171 -0.447214 0.363796
vn 0.160571 -0.782624 0.601429
vn -0.0934931 0.447214 -0.889527
vn -0.750022 0.111803 -0.651895
vn -0.509037 0.5 -0.700629
vn 0.388219 -0.111803 0.91476
vn -0.522374 0.782624 -0.338564
vn 0.5 0 0.866025
vn 0.25 0.866025 0.433013
vn 0.866025 0.5 8.32667e-17
vn 1 0 9.61481e-17
vn 0.327327 0.755929 -0.566947
vn 0.5 0 -0.866025
vn -0.654654 0.755929 -1.25887e-16
vn -0.433013 0.5 -0.75
vn -0.5 0 -0.866025
vn -1 0 -1.92296e-16
vn -0.433013 0.5 0.75
vn -0.5 0 0.866025
vn 0.655283 0.755383 -5.77879e-17
vn 0.508761 0.860908 -2.87871e-17
vn 0.503557 0.848328 -0.163616
vn 0.652631 0.727397 -0.212053
vn -3.86115e-17 1 9.28161e-18
vn 0.411596 0.860908 -0.299042
vn 0.530135 0.755383 -0.385166
vn 0.311215 0.848328 -0.428351
vn 0.403348 0.727397 -0.555161
vn 0.157216 0.860908 -0.48386
vn 0.202494 0.755383 -0.623211
vn 7.80078e-17 0.848328 -0.529471
vn 1.46073e-16 0.727397 -0.686217
vn -0.157216 0.860908 -0.48386
vn -0.202494 0.755383 -0.623211
vn -0.311215 0.848328 -0.428351
vn -0.403348 0.727397 -0.555161
vn -0.411596 0.860908 -0.299042
vn -0.530135 0.755383 -0.385166
vn -0.503557 0.848328 -0.163616
vn -0.652631 0.727397 -0.212053
vn -0.508761 0.860908 -8.63614e-17
vn -0.655283 0.755383 -1.4447e-16
vn -0.503557 0.848328 0.163616
vn -0.652631 0.727397 0.212053
vn -0.411596 0.860908 0.299042
vn -0.530135 0.755383 0.385166
vn -0.311215 0.848328 0.428351
vn -0.403348 0.727397 0.555161
vn -0.157216 0.860908 0.48386
vn -0.202494 0.755383 0.623211
vn -7.80078e-17 0.848328 0.529471
vn -1.46073e-16 0.727397 0.686217
vn 0.157216 0.860908 0.48386
vn 0.202494 0.755383 0.623211
vn 0.311215 0.848328 0.428351
vn 0.403348 0.727397 0.555161
vn 0.411596 0.860908 0.299042
vn 0.530135 0.755383 0.385166
vn 0.503557 0.848328 0.163616
vn 0.652631 0.727397 0.212053
# 133 vertex normals

usemtl Mat.1
f 8/3/3 3/2/2 1/1/1
f 8/7/3 10/6/5 6/5/4 3/4/2
f 10/9/5 2/1/6 6/8/4
f 12/10/7 8/3/3 1/1/1
f 12/12/7 14/11/8 10/6/5 8/7/3
f 14/13/8 2/1/6 10/9/5
f 3/2/2 12/10/7 1/1/1
f 3/15/2 6/14/4 14/11/8 12/12/7
f 6/8/4 2/1/6 14/13/8
f 22/3/11 18/2/10 15/1/9
f 22/7/11 23/6/13 19/5/12 18/4/10
f 23/9/13 16/1/14 19/8/12
f 26/10/15 22/3/11 15/1/9
f 26/12/15 27/11/16 23/6/13 22/7/11
f 27/13/16 16/1/14 23/9/13
f 18/2/10 26/10/15 15/1/9
f 18/15/10 19/14/12 27/11/16 26/12/15
f 19/8/12 16/1/14 27/13/16
f 36/3/19 32/2/18 29/1/17
f 36/7/19 38/6/21 34/5/20 32/4/18
f 38/9/21 30/1/22 34/8/20
f 39/10/23 36/3/19 29/1/17
f 39/12/23 41/11/24 38/6/21 36/7/19
f 41/13/24 30/1/22 38/9/21
f 32/2/18 39/10/23 29/1/17
f 32/15/18 34/14/20 41/11/24 39/12/23
f 34/8/20 30/1/22 41/13/24
f 50/3/27 45/2/26 43/1/25
f 50/7/27 51/6/29 47/5/28 45/4/26
f 51/9/29 44/1/30 47/8/28
f 53/10/31 50/3/27 43/1/25
f 53/12/31 55/11/32 51/6/29 50/7/27
f 55/13/32 44/1/30 51/9/29
f 45/2/26 53/10/31 43/1/25
f 45/15/26 47/14/28 55/11/32 53/12/31
f 47/8/28 44/1/30 55/13/32
f 64/3/35 59/2/34 57/1/33
f 64/7/35 65/6/37 61/5/36 59/4/34
f 65/9/37 58/1/38 61/8/36
f 67/10/39 64/3/35 57/1/33
f 67/12/39 69/11/40 65/6/37 64/7/35
f 69/13/40 58/1/38 65/9/37
f 59/2/34 67/10/39 57/1/33
f 59/15/34 61/14/36 69/11/40 67/12/39
f 61/8/36 58/1/38 69/13/40
f 77/3/43 73/2/42 71/1/41
f 77/7/43 80/6/45 75/5/44 73/4/42
f 80/9/45 72/1/46 75/8/44
f 82/10/47 77/3/43 71/1/41
f 82/12/47 84/11/48 80/6/45 77/7/43
f 84/13/48 72/1/46 80/9/45
f 73/2/42 82/10/47 71/1/41
f 73/15/42 75/14/44 84/11/48 82/12/47
f 75/8/44 72/1/46 84/13/48
f 91/3/51 88/2/50 85/1/49
f 91/7/51 93/6/53 89/5/52 88/4/50
f 93/9/53 86/1/54 89/8/52
f 95/10/55 91/3/51 85/1/49
f 95/12/55 98/11/56 93/6/53 91/7/51
f 98/13/56 86/1/54 93/9/53
f 88/2/50 95/10/55 85/1/49
f 88/15/50 89/14/52 98/11/56 95/12/55
f 89/8/52 86/1/54 98/13/56
f 106/3/59 102/2/58 99/1/57
f 106/7/59 107/6/61 103/5/60 102/4/58
f 107/9/61 100/1/62 103/8/60
f 109/10/63 106/3/59 99/1/57
f 109/12/63 111/11/64 107/6/61 106/7/59
f 111/13/64 100/1/62 107/9/61
f 102/2/58 109/10/63 99/1/57
f 102/15/58 103/14/60 111/11/64 109/12/63
f 103/8/60 100/1/62 111/13/64
f 120/3/67 115/2/66 113/1/65
f 120/7/67 122/6/69 117/5/68 115/4/66
f 122/9/69 114/1/70 117/8/68
f 123/10/71 120/3/67 113/1/65
f 123/12/71 126/11/72 122/6/69 120/7/67
f 126/13/72 114/1/70 122/9/69
f 115/2/66 123/10/71 113/1/65
f 115/15/66 117/14/68 126/11/72 123/12/71
f 117/8/68 114/1/70 126/13/72
f 4/3/75 129/2/74 127/1/73
f 4/7/75 5/6/77 131/5/76 129/4/74
f 5/9/77 128/1/78 131/8/76
f 7/10/79 4/3/75 127/1/73
f 7/12/79 9/11/80 5/6/77 4/7/75
f 9/13/80 128/1/78 5/9/77
f 129/2/74 7/10/79 127/1/73
f 129/15/74 131/14/76 9/11/80 7/12/79
f 131/8/76 128/1/78 9/13/80
f 35/18/84 17/14/83 28/17/82 37/16/81
f 31/21/86 21/20/85 17/5/83 35/19/84
f 28/22/82 17/8/83 21/24/85 25/23/88 33/2/87 13/29/91
f 24/25/89 25/6/88 21/20/85 31/21/86
f 11/28/92 13/11/91 33/27/87 20/26/90
f 20/26/90 33/27/87 25/6/88 24/25/89
f 37/16/81 28/17/82 13/11/91 11/28/92
usemtl Mat
f 48/32/96 49/31/95 46/30/94 42/8/93
f 49/31/95 40/1/97 46/30/94
f 52/34/99 54/33/98 49/31/95 48/32/96
f 54/33/98 40/1/97 49/31/95
f 56/36/101 60/35/100 54/33/98 52/34/99
f 60/35/100 40/1/97 54/33/98
f 62/38/103 63/37/102 60/35/100 56/36/101
f 63/37/102 40/1/97 60/35/100
f 66/27/105 68/39/104 63/37/102 62/38/103
f 68/39/104 40/1/97 63/37/102
f 70/41/107 74/40/106 68/39/104 66/27/105
f 74/40/106 40/1/97 68/39/104
f 76/43/109 78/42/108 74/40/106 70/41/107
f 78/42/108 40/1/97 74/40/106
f 79/45/111 81/44/110 78/42/108 76/43/109
f 81/44/110 40/1/97 78/42/108
f 83/47/113 87/46/112 81/44/110 79/45/111
f 87/46/112 40/1/97 81/44/110
f 90/2/115 92/48/114 87/46/112 83/47/113
f 92/48/114 40/1/97 87/46/112
f 94/50/117 96/49/116 92/48/114 90/2/115
f 96/49/116 40/1/97 92/48/114
f 97/52/119 101/51/118 96/49/116 94/50/117
f 101/51/118 40/1/97 96/49/116
f 104/54/121 105/53/120 101/51/118 97/52/119
f 105/53/120 40/1/97 101/51/118
f 108/56/123 110/55/122 105/53/120 104/54/121
f 110/55/122 40/1/97 105/53/120
f 112/58/125 116/57/124 110/55/122 108/56/123
f 116/57/124 40/1/97 110/55/122
f 118/60/127 119/59/126 116/57/124 112/58/125
f 119/59/126 40/1/97 116/57/124
f 121/62/129 124/61/128 119/59/126 118/60/127
f 124/61/128 40/1/97 119/59/126
f 125/64/131 130/63/130 124/61/128 121/62/129
f 130/63/130 40/1/97 124/61/128
f 132/66/133 133/65/132 130/63/130 125/64/131
f 133/65/132 40/1/97 130/63/130
f 42/8/93 46/30/94 133/65/132 132/66/133
f 46/30/94 40/1/97 133/65/132
# 137 facets

