# Blender v2.79 (sub 0) OBJ File: ''
# www.blender.org
mtllib model.mtl
o model
v -0.038098 0.180470 0.036987
v -0.022022 0.177627 0.036794
v -0.038350 0.157772 -1.032896
v -0.054425 0.160614 -1.032704
v -0.009520 0.167129 0.036798
v -0.025847 0.147274 -1.032892
v -0.003939 0.151788 0.036998
v -0.020267 0.131932 -1.032692
v -0.006777 0.135714 0.037339
v -0.023105 0.115859 -1.032351
v -0.017273 0.123215 0.037731
v -0.033600 0.103359 -1.031958
v -0.032613 0.117639 0.038069
v -0.048941 0.097784 -1.031621
v -0.048689 0.120482 0.038262
v -0.065016 0.100626 -1.031429
v -0.061192 0.130980 0.038258
v -0.077519 0.111125 -1.031433
v -0.066772 0.146321 0.038058
v -0.083099 0.126466 -1.031632
v -0.063934 0.162395 0.037717
v -0.080261 0.142540 -1.031974
v -0.053438 0.174894 0.037324
v -0.069766 0.155039 -1.032366
v -0.027663 0.193196 0.028038
v -0.068669 0.186145 0.033888
v -0.070600 0.202700 0.118543
v -0.073413 0.125515 0.035085
v -0.043308 0.104586 0.029921
v -0.086244 0.114090 0.120426
v 0.002375 0.098422 0.119364
v -0.002100 0.111474 0.024254
v 0.018020 0.187032 0.117481
v -0.019855 0.244363 0.252126
v -0.019383 0.211884 0.112681
v -0.002068 0.067668 0.395174
v -0.038679 0.089942 0.125241
v -0.058432 0.253454 0.392586
v -0.051412 0.261988 0.852454
v -0.002477 0.276282 0.851442
v -0.009496 0.267748 0.391574
v 0.033826 0.231372 0.391588
v 0.015879 0.149520 0.393381
v -0.044918 0.071565 0.255715
v -0.084364 0.090618 0.396004
v -0.071398 0.172036 0.394295
v 0.040845 0.239906 0.851455
v 0.032330 0.199536 0.882343
v 0.023357 0.158611 0.883239
v 0.004952 0.076202 0.855041
v -0.043984 0.061909 0.856053
v -0.051003 0.053375 0.396186
v -0.077344 0.099151 0.855871
v -0.070403 0.140417 0.885008
v -0.063920 0.181126 0.884154
v -0.057437 0.221836 0.883299
v -0.028516 0.124333 0.904673
v 0.014383 0.117685 0.884136
v -0.015549 0.205752 0.902964
v -0.022032 0.165042 0.903819
v 0.002644 0.172105 0.023057
v -0.058513 0.232542 -1.080327
v -0.037073 0.234507 -1.074946
v -0.019684 0.035294 -1.071507
v -0.041123 0.033329 -1.076889
v -0.021203 0.236158 -1.059523
v -0.003814 0.036945 -1.056084
v -0.015155 0.237053 -1.038189
v 0.002235 0.037840 -1.034751
v -0.020549 0.236953 -1.016663
v -0.003159 0.037740 -1.013225
v -0.035940 0.235884 -1.000712
v -0.018551 0.036671 -0.997273
v -0.057204 0.234133 -0.994610
v -0.039815 0.034920 -0.991171
v -0.078644 0.232169 -0.999991
v -0.061254 0.032956 -0.996553
v -0.094514 0.230518 -1.015415
v -0.077124 0.031305 -1.011976
v -0.100562 0.229622 -1.036747
v -0.083173 0.030410 -1.033309
v -0.095168 0.229723 -1.058274
v -0.077779 0.030510 -1.054835
v -0.079777 0.230791 -1.074225
v -0.062387 0.031578 -1.070786
v -0.067356 0.218156 0.695385
v -0.085613 0.094303 0.650959
v -0.085537 0.094150 0.583457
v -0.078625 0.142026 0.700135
v -0.072958 0.180711 0.737759
v -0.061625 0.256487 0.654275
v -0.061404 0.257256 0.581637
v -0.073081 0.179106 0.660185
v -0.024400 0.211801 0.695448
v -0.042657 0.087948 0.651022
v -0.042581 0.087796 0.583520
v -0.035670 0.135671 0.700198
v -0.030002 0.174356 0.737823
v -0.018669 0.250132 0.654338
v -0.018448 0.250901 0.581700
v -0.030125 0.172751 0.660248
v -0.066617 0.224408 0.821880
v -0.084874 0.100556 0.777454
v -0.084798 0.100403 0.709951
v -0.077886 0.148279 0.826630
v -0.072219 0.186964 0.864254
v -0.060886 0.262739 0.780770
v -0.060665 0.263509 0.708132
v -0.072342 0.185359 0.786680
v -0.023661 0.218054 0.821943
v -0.041918 0.094201 0.777517
v -0.041842 0.094048 0.710015
v -0.034930 0.141924 0.826693
v -0.029263 0.180609 0.864318
v -0.017930 0.256385 0.780833
v -0.017709 0.257154 0.708195
v -0.029386 0.179004 0.786743
v -0.004957 0.207829 0.818433
v -0.033319 0.085640 0.774709
v -0.035282 0.085555 0.707235
v -0.021474 0.132691 0.823601
v -0.011937 0.170834 0.860997
v 0.002253 0.245699 0.777129
v 0.000345 0.246528 0.704516
v -0.014505 0.169324 0.783463
v 0.037419 0.198430 0.817213
v 0.009057 0.076241 0.773488
v 0.007094 0.076155 0.706014
v 0.020902 0.123292 0.822381
v 0.030439 0.161434 0.859776
v 0.044629 0.236299 0.775908
v 0.042721 0.237129 0.703295
v 0.027871 0.159925 0.782243
v -0.009940 0.201781 0.692025
v -0.038302 0.079592 0.648301
v -0.040265 0.079506 0.580826
v -0.026458 0.126643 0.697193
v -0.016920 0.164785 0.734589
v -0.002731 0.239650 0.650720
v -0.004639 0.240480 0.578107
v -0.019489 0.163276 0.657055
v 0.032436 0.192382 0.690804
v 0.004074 0.070192 0.647080
v 0.002111 0.070107 0.579605
v 0.015919 0.117243 0.695972
v 0.025456 0.155386 0.733368
v 0.039646 0.230251 0.649499
v 0.037738 0.231080 0.576886
v 0.022888 0.153877 0.655834
vn -0.9892 0.1463 -0.0015
vn 0.9892 -0.1463 0.0015
vn -0.1022 -0.6976 -0.7092
vn 0.1463 0.9892 0.0109
vn -0.1463 -0.9892 0.0021
vn -0.1055 -0.7061 0.7002
vn 0.1082 0.7378 0.6663
vn 0.1055 0.7199 0.6860
vn 0.0986 0.6590 -0.7457
vn -0.1025 -0.6858 0.7205
vn -0.9759 0.2165 0.0281
vn 0.9759 -0.2165 -0.0281
vn -0.1729 -0.6877 -0.7051
vn 0.2167 0.9762 0.0055
vn -0.2163 -0.9763 0.0075
vn -0.1344 -0.6975 0.7038
vn 0.1804 0.7275 0.6619
vn 0.1771 0.7099 0.6817
vn 0.1228 0.6511 -0.7490
vn -0.1294 -0.6775 0.7240
vn 0.1738 0.9846 -0.0209
vn 0.6429 0.7656 -0.0240
vn 0.9397 0.3415 -0.0207
vn 0.9847 -0.1741 -0.0118
vn 0.7658 -0.6430 0.0002
vn 0.3418 -0.9397 0.0122
vn -0.1738 -0.9846 0.0209
vn -0.6429 -0.7656 0.0240
vn -0.9397 -0.3415 0.0207
vn -0.9847 0.1741 0.0118
vn -0.7658 0.6430 -0.0002
vn -0.3418 0.9397 -0.0122
vn -0.0153 -0.0186 -0.9997
vn 0.0153 0.0186 0.9997
vn -0.1929 0.9621 -0.1926
vn -0.5822 -0.7898 -0.1933
vn -0.9834 0.1724 -0.0561
vn 0.9821 -0.1749 -0.0702
vn -0.1967 0.9548 -0.2230
vn -0.1419 0.0040 -0.9899
vn 0.9848 -0.1739 -0.0035
vn 0.1866 -0.9767 -0.1059
vn -0.9847 0.1741 0.0115
vn -0.2806 0.9597 -0.0135
vn 0.6065 0.7786 -0.1609
vn 0.9765 -0.2146 -0.0216
vn -0.6075 -0.7918 -0.0633
vn -0.9873 0.1577 0.0202
vn 0.9767 -0.2144 -0.0109
vn 0.2806 -0.9597 0.0135
vn -0.9874 0.1575 0.0122
vn -0.1641 0.6163 0.7702
vn 0.4215 -0.0726 0.9039
vn 0.2710 -0.5933 0.7580
vn 0.3971 -0.0555 0.9161
vn 0.4159 0.4956 0.7625
vn -0.3974 0.0825 0.9139
vn -0.5141 -0.4353 0.7390
vn -0.7447 -0.6670 0.0237
vn 0.2002 -0.6324 0.7483
vn -0.5052 -0.4489 0.7371
vn 0.4071 -0.0457 0.9122
vn -0.1389 0.6008 0.7872
vn 0.3975 0.4921 0.7745
vn 0.5335 0.8177 -0.2161
vn 0.1443 -0.9794 -0.1412
vn 0.2765 -0.9545 -0.1116
vn -0.4361 -0.8880 -0.1459
vn -0.2803 0.9499 -0.1385
vn 0.5602 0.8072 -0.1861
vn 0.6333 0.7542 -0.1735
vn -0.3490 0.9241 -0.1557
vn -0.1946 0.9617 -0.1933
vn 0.5589 0.7966 -0.2305
vn -0.7394 -0.6629 -0.1179
vn 0.3009 -0.9462 -0.1189
vn -0.4404 -0.8904 -0.1154
vn 0.1780 -0.9713 -0.1579
vn 0.9858 -0.0801 -0.1479
vn -0.1665 -0.0064 -0.9860
vn -0.1367 0.0031 -0.9906
vn -0.9876 0.0745 -0.1385
vn -0.1731 -0.0059 -0.9849
vn 0.2431 0.0045 -0.9700
vn 0.6936 0.0481 -0.7188
vn 0.9582 0.0789 -0.2750
vn 0.9661 0.0885 0.2425
vn 0.7151 0.0744 0.6950
vn 0.2725 0.0404 0.9613
vn -0.2431 -0.0045 0.9700
vn -0.6935 -0.0481 0.7188
vn -0.9582 -0.0789 0.2750
vn -0.9661 -0.0885 -0.2425
vn -0.7151 -0.0744 -0.6950
vn -0.2725 -0.0404 -0.9613
vn 0.0869 -0.9961 0.0172
vn -0.0869 0.9961 -0.0172
usemtl mat8
s off
f 91//1 92//1 93//1
f 91//1 93//1 86//1
f 86//1 93//1 90//1
f 89//1 90//1 93//1
f 87//1 93//1 88//1
f 93//1 87//1 89//1
f 99//2 101//2 100//2
f 99//2 94//2 101//2
f 94//2 98//2 101//2
f 97//2 101//2 98//2
f 95//2 96//2 101//2
f 101//2 97//2 95//2
f 93//3 92//3 100//3 101//3
f 92//4 91//4 99//4 100//4
f 88//5 96//5 95//5 87//5
f 87//6 95//6 97//6 89//6
f 86//7 90//7 98//7 94//7
f 91//8 86//8 94//8 99//8
f 93//9 101//9 96//9 88//9
f 90//10 89//10 97//10 98//10
f 107//1 108//1 109//1
f 107//1 109//1 102//1
f 102//1 109//1 106//1
f 105//1 106//1 109//1
f 103//1 109//1 104//1
f 109//1 103//1 105//1
f 115//2 117//2 116//2
f 115//2 110//2 117//2
f 110//2 114//2 117//2
f 113//2 117//2 114//2
f 111//2 112//2 117//2
f 117//2 113//2 111//2
f 109//3 108//3 116//3 117//3
f 108//4 107//4 115//4 116//4
f 104//5 112//5 111//5 103//5
f 103//6 111//6 113//6 105//6
f 102//7 106//7 114//7 110//7
f 107//8 102//8 110//8 115//8
f 109//9 117//9 112//9 104//9
f 106//10 105//10 113//10 114//10
f 123//11 124//11 125//11
f 123//11 125//11 118//11
f 118//11 125//11 122//11
f 121//11 122//11 125//11
f 119//11 125//11 120//11
f 125//11 119//11 121//11
f 131//12 133//12 132//12
f 131//12 126//12 133//12
f 126//12 130//12 133//12
f 129//12 133//12 130//12
f 127//12 128//12 133//12
f 133//12 129//12 127//12
f 125//13 124//13 132//13 133//13
f 124//14 123//14 131//14 132//14
f 120//15 128//15 127//15 119//15
f 119//16 127//16 129//16 121//16
f 118//17 122//17 130//17 126//17
f 123//18 118//18 126//18 131//18
f 125//19 133//19 128//19 120//19
f 122//20 121//20 129//20 130//20
f 139//11 140//11 141//11
f 139//11 141//11 134//11
f 134//11 141//11 138//11
f 137//11 138//11 141//11
f 135//11 141//11 136//11
f 141//11 135//11 137//11
f 147//12 149//12 148//12
f 147//12 142//12 149//12
f 142//12 146//12 149//12
f 145//12 149//12 146//12
f 143//12 144//12 149//12
f 149//12 145//12 143//12
f 141//13 140//13 148//13 149//13
f 140//14 139//14 147//14 148//14
f 136//15 144//15 143//15 135//15
f 135//16 143//16 145//16 137//16
f 134//17 138//17 146//17 142//17
f 139//18 134//18 142//18 147//18
f 141//19 149//19 144//19 136//19
f 138//20 137//20 145//20 146//20
usemtl mat18
f 1//21 2//21 3//21 4//21
f 2//22 5//22 6//22 3//22
f 5//23 7//23 8//23 6//23
f 7//24 9//24 10//24 8//24
f 9//25 11//25 12//25 10//25
f 11//26 13//26 14//26 12//26
f 13//27 15//27 16//27 14//27
f 15//28 17//28 18//28 16//28
f 17//29 19//29 20//29 18//29
f 19//30 21//30 22//30 20//30
f 21//31 23//31 24//31 22//31
f 23//32 1//32 4//32 24//32
f 4//33 3//33 6//33 8//33 10//33 12//33 14//33 16//33 18//33 20//33 22//33 24//33
f 23//34 21//34 19//34 17//34 15//34 13//34 11//34 9//34 7//34 5//34 2//34 1//34
f 25//35 26//35 27//35
f 28//36 29//36 30//36
f 26//37 30//37 27//37
f 31//38 32//38 33//38
f 34//39 35//39 27//39
f 25//40 29//40 26//40
f 36//41 31//41 33//41
f 36//42 37//42 31//42
f 38//43 27//43 30//43
f 39//44 40//44 41//44 38//44
f 34//45 42//45 33//45
f 33//46 42//46 43//46 36//46
f 44//47 45//47 30//47
f 30//48 45//48 46//48 38//48
f 47//49 48//49 49//49 43//49 42//49
f 50//50 51//50 52//50 36//50
f 53//51 54//51 55//51 46//51 45//51
f 56//52 40//52 39//52
f 57//53 58//53 49//53
f 57//54 50//54 58//54
f 59//55 60//55 49//55 48//55
f 40//22 47//22 42//22 41//22
f 48//56 47//56 40//56
f 59//57 56//57 55//57 60//57
f 55//57 54//57 57//57
f 57//58 54//58 53//58
f 51//59 53//59 45//59 52//59
f 57//60 51//60 50//60
f 53//61 51//61 57//61
f 49//62 60//62 57//62
f 57//57 60//57 55//57
f 56//63 59//63 40//63
f 40//64 59//64 48//64
f 33//65 61//65 25//65
f 29//66 32//66 31//66
f 44//67 36//67 52//67
f 44//68 30//68 37//68
f 34//69 38//69 41//69
f 34//70 33//70 35//70
f 34//71 41//71 42//71
f 38//72 34//72 27//72
f 27//73 35//73 25//73
f 25//74 35//74 33//74
f 44//75 52//75 45//75
f 36//76 44//76 37//76
f 29//77 37//77 30//77
f 31//78 37//78 29//78
f 32//79 61//79 33//79
f 25//80 61//80 32//80
f 25//81 32//81 29//81
f 26//82 28//82 30//82
f 29//83 28//83 26//83
f 49//49 58//49 50//49 36//49 43//49
f 55//51 56//51 39//51 38//51 46//51
f 62//84 63//84 64//84 65//84
f 63//85 66//85 67//85 64//85
f 66//86 68//86 69//86 67//86
f 68//87 70//87 71//87 69//87
f 70//88 72//88 73//88 71//88
f 72//89 74//89 75//89 73//89
f 74//90 76//90 77//90 75//90
f 76//91 78//91 79//91 77//91
f 78//92 80//92 81//92 79//92
f 80//93 82//93 83//93 81//93
f 82//94 84//94 85//94 83//94
f 84//95 62//95 65//95 85//95
f 65//96 64//96 67//96 69//96 71//96 73//96 75//96 77//96 79//96 81//96 83//96 85//96
f 84//97 82//97 80//97 78//97 76//97 74//97 72//97 70//97 68//97 66//97 63//97 62//97
